<svg width="230" height="50" viewBox="0 0 230 50" fill="none" xmlns="http://www.w3.org/2000/svg">
<path d="M127.179 41.288C125.515 41.288 123.771 40.984 121.947 40.376C120.123 39.768 118.603 38.744 117.387 37.304C117.131 36.984 117.019 36.648 117.051 36.296C117.115 35.912 117.323 35.592 117.675 35.336C117.995 35.112 118.331 35.032 118.683 35.096C119.067 35.16 119.371 35.336 119.595 35.624C120.523 36.712 121.643 37.48 122.955 37.928C124.299 38.344 125.755 38.552 127.323 38.552C130.011 38.552 131.915 38.072 133.035 37.112C134.155 36.152 134.715 35.032 134.715 33.752C134.715 32.504 134.107 31.48 132.891 30.68C131.707 29.848 129.867 29.256 127.371 28.904C124.171 28.456 121.803 27.592 120.267 26.312C118.731 25.032 117.963 23.544 117.963 21.848C117.963 20.248 118.363 18.904 119.163 17.816C119.963 16.696 121.051 15.864 122.427 15.32C123.835 14.744 125.435 14.456 127.227 14.456C129.403 14.456 131.243 14.856 132.747 15.656C134.251 16.424 135.467 17.464 136.395 18.776C136.651 19.096 136.731 19.448 136.635 19.832C136.571 20.184 136.331 20.472 135.915 20.696C135.595 20.856 135.259 20.904 134.907 20.84C134.555 20.776 134.251 20.584 133.995 20.264C133.195 19.24 132.219 18.472 131.067 17.96C129.947 17.416 128.635 17.144 127.131 17.144C125.115 17.144 123.547 17.576 122.427 18.44C121.307 19.304 120.747 20.344 120.747 21.56C120.747 22.392 120.971 23.128 121.419 23.768C121.899 24.376 122.667 24.904 123.723 25.352C124.779 25.768 126.187 26.104 127.947 26.36C130.347 26.68 132.235 27.224 133.611 27.992C135.019 28.76 136.011 29.656 136.587 30.68C137.195 31.672 137.499 32.744 137.499 33.896C137.499 35.4 137.019 36.712 136.059 37.832C135.099 38.952 133.835 39.816 132.267 40.424C130.699 41 129.003 41.288 127.179 41.288ZM153.201 41.24C150.673 41.24 148.417 40.68 146.433 39.56C144.481 38.408 142.945 36.824 141.825 34.808C140.705 32.792 140.145 30.488 140.145 27.896C140.145 25.272 140.673 22.968 141.729 20.984C142.785 18.968 144.241 17.384 146.097 16.232C147.953 15.08 150.081 14.504 152.481 14.504C154.849 14.504 156.945 15.064 158.769 16.184C160.593 17.272 162.017 18.792 163.041 20.744C164.065 22.664 164.577 24.888 164.577 27.416C164.577 27.832 164.449 28.168 164.193 28.424C163.937 28.648 163.601 28.76 163.185 28.76H142.065V26.264H163.953L161.841 27.848C161.905 25.768 161.553 23.928 160.785 22.328C160.017 20.728 158.913 19.48 157.473 18.584C156.065 17.656 154.401 17.192 152.481 17.192C150.657 17.192 149.025 17.656 147.585 18.584C146.177 19.48 145.057 20.728 144.225 22.328C143.425 23.928 143.025 25.784 143.025 27.896C143.025 29.976 143.457 31.816 144.321 33.416C145.185 35.016 146.385 36.28 147.921 37.208C149.457 38.104 151.217 38.552 153.201 38.552C154.449 38.552 155.697 38.344 156.945 37.928C158.225 37.48 159.233 36.904 159.969 36.2C160.225 35.944 160.529 35.816 160.881 35.816C161.265 35.784 161.585 35.88 161.841 36.104C162.193 36.392 162.369 36.712 162.369 37.064C162.401 37.416 162.257 37.736 161.937 38.024C160.913 38.952 159.569 39.72 157.905 40.328C156.273 40.936 154.705 41.24 153.201 41.24ZM191.139 41C190.723 41 190.371 40.872 190.083 40.616C189.827 40.328 189.699 39.976 189.699 39.56V26.648C189.699 24.536 189.283 22.792 188.451 21.416C187.651 20.04 186.547 19.016 185.139 18.344C183.763 17.64 182.195 17.288 180.435 17.288C178.707 17.288 177.155 17.624 175.779 18.296C174.403 18.936 173.315 19.832 172.515 20.984C171.715 22.136 171.315 23.432 171.315 24.872H168.915C169.043 22.888 169.635 21.112 170.691 19.544C171.747 17.944 173.123 16.696 174.819 15.8C176.515 14.872 178.387 14.408 180.435 14.408C182.739 14.408 184.803 14.888 186.627 15.848C188.483 16.776 189.939 18.152 190.995 19.976C192.051 21.768 192.579 23.992 192.579 26.648V39.56C192.579 39.976 192.435 40.328 192.147 40.616C191.891 40.872 191.555 41 191.139 41ZM169.875 41C169.459 41 169.107 40.872 168.819 40.616C168.563 40.328 168.435 39.976 168.435 39.56V16.184C168.435 15.736 168.563 15.384 168.819 15.128C169.107 14.872 169.459 14.744 169.875 14.744C170.323 14.744 170.675 14.872 170.931 15.128C171.187 15.384 171.315 15.736 171.315 16.184V39.56C171.315 39.976 171.187 40.328 170.931 40.616C170.675 40.872 170.323 41 169.875 41ZM210.332 41.288C207.772 41.288 205.468 40.712 203.42 39.56C201.404 38.376 199.804 36.776 198.62 34.76C197.468 32.712 196.892 30.408 196.892 27.848C196.892 25.288 197.468 23 198.62 20.984C199.804 18.968 201.404 17.384 203.42 16.232C205.468 15.048 207.772 14.456 210.332 14.456C212.636 14.456 214.7 14.952 216.524 15.944C218.38 16.936 219.82 18.264 220.844 19.928V4.952C220.844 4.504 220.972 4.152 221.228 3.896C221.516 3.64 221.868 3.512 222.284 3.512C222.732 3.512 223.084 3.64 223.34 3.896C223.596 4.152 223.724 4.504 223.724 4.952V28.136C223.692 30.632 223.084 32.872 221.9 34.856C220.716 36.84 219.116 38.408 217.1 39.56C215.116 40.712 212.86 41.288 210.332 41.288ZM210.332 38.6C212.348 38.6 214.14 38.136 215.708 37.208C217.308 36.248 218.556 34.968 219.452 33.368C220.38 31.736 220.844 29.896 220.844 27.848C220.844 25.8 220.38 23.976 219.452 22.376C218.556 20.776 217.308 19.512 215.708 18.584C214.14 17.624 212.348 17.144 210.332 17.144C208.348 17.144 206.556 17.624 204.956 18.584C203.356 19.512 202.092 20.776 201.164 22.376C200.236 23.976 199.772 25.8 199.772 27.848C199.772 29.896 200.236 31.736 201.164 33.368C202.092 34.968 203.356 36.248 204.956 37.208C206.556 38.136 208.348 38.6 210.332 38.6Z" fill="black"/>
<path d="M6.816 40.088L3.552 37.208L19.872 15.656L23.088 18.536L6.816 40.088ZM5.376 41C3.872 41 3.12 40.248 3.12 38.744C3.12 37.24 3.872 36.488 5.376 36.488H21.744C23.248 36.488 24 37.24 24 38.744C24 40.248 23.248 41 21.744 41H5.376ZM4.896 19.256C3.392 19.256 2.64 18.504 2.64 17C2.64 15.496 3.392 14.744 4.896 14.744H21.264C22.768 14.744 23.52 15.496 23.52 17C23.52 18.504 22.768 19.256 21.264 19.256H4.896ZM37.3204 41.192C34.6644 41.192 32.2964 40.632 30.2164 39.512C28.1684 38.36 26.5524 36.792 25.3684 34.808C24.2164 32.792 23.6404 30.488 23.6404 27.896C23.6404 25.272 24.1844 22.968 25.2724 20.984C26.3924 18.968 27.9284 17.4 29.8804 16.28C31.8324 15.128 34.0724 14.552 36.6004 14.552C39.0964 14.552 41.2404 15.112 43.0324 16.232C44.8244 17.32 46.1844 18.84 47.1124 20.792C48.0724 22.712 48.5524 24.936 48.5524 27.464C48.5524 28.072 48.3444 28.584 47.9284 29C47.5124 29.384 46.9844 29.576 46.3444 29.576H27.0004V25.736H46.2004L44.2324 27.08C44.2004 25.48 43.8804 24.056 43.2724 22.808C42.6644 21.528 41.8004 20.52 40.6804 19.784C39.5604 19.048 38.2004 18.68 36.6004 18.68C34.7764 18.68 33.2084 19.08 31.8964 19.88C30.6164 20.68 29.6404 21.784 28.9684 23.192C28.2964 24.568 27.9604 26.136 27.9604 27.896C27.9604 29.656 28.3604 31.224 29.1604 32.6C29.9604 33.976 31.0644 35.064 32.4724 35.864C33.8804 36.664 35.4964 37.064 37.3204 37.064C38.3124 37.064 39.3204 36.888 40.3444 36.536C41.4004 36.152 42.2484 35.72 42.8884 35.24C43.3684 34.888 43.8804 34.712 44.4244 34.712C45.0004 34.68 45.4964 34.84 45.9124 35.192C46.4564 35.672 46.7444 36.2 46.7764 36.776C46.8084 37.352 46.5524 37.848 46.0084 38.264C44.9204 39.128 43.5604 39.832 41.9284 40.376C40.3284 40.92 38.7924 41.192 37.3204 41.192ZM72.6529 41.048C71.9489 41.048 71.3569 40.824 70.8769 40.376C70.4289 39.896 70.2049 39.304 70.2049 38.6V26.792C70.2049 24.968 69.8689 23.48 69.1969 22.328C68.5249 21.176 67.6129 20.328 66.4609 19.784C65.3409 19.208 64.0449 18.92 62.5729 18.92C61.2289 18.92 60.0129 19.192 58.9249 19.736C57.8369 20.28 56.9729 21.016 56.3329 21.944C55.6929 22.84 55.3729 23.88 55.3729 25.064H52.3489C52.3489 23.048 52.8289 21.256 53.7889 19.688C54.7809 18.088 56.1249 16.824 57.8209 15.896C59.5169 14.968 61.4209 14.504 63.5329 14.504C65.7409 14.504 67.7089 14.984 69.4369 15.944C71.1969 16.872 72.5729 18.248 73.5649 20.072C74.5889 21.896 75.1009 24.136 75.1009 26.792V38.6C75.1009 39.304 74.8609 39.896 74.3809 40.376C73.9329 40.824 73.3569 41.048 72.6529 41.048ZM52.9249 41.048C52.2209 41.048 51.6289 40.824 51.1489 40.376C50.7009 39.896 50.4769 39.304 50.4769 38.6V17.192C50.4769 16.456 50.7009 15.864 51.1489 15.416C51.6289 14.968 52.2209 14.744 52.9249 14.744C53.6609 14.744 54.2529 14.968 54.7009 15.416C55.1489 15.864 55.3729 16.456 55.3729 17.192V38.6C55.3729 39.304 55.1489 39.896 54.7009 40.376C54.2529 40.824 53.6609 41.048 52.9249 41.048Z" fill="black"/>
<path d="M79.693 25C79.693 15.795 86.9191 8.33334 95.8333 8.33334C104.748 8.33334 111.974 15.795 111.974 25C111.974 34.205 104.748 41.6667 95.8333 41.6667H79.693L84.4205 36.785C82.9195 35.2391 81.7292 33.4021 80.9179 31.3797C80.1066 29.3572 79.6903 27.1891 79.693 25ZM87.4856 38.3333H95.8333C98.3871 38.3333 100.884 37.5514 103.007 36.0863C105.13 34.6212 106.785 32.5388 107.763 30.1025C108.74 27.6661 108.996 24.9852 108.498 22.3988C107.999 19.8124 106.77 17.4366 104.964 15.5719C103.158 13.7072 100.857 12.4373 98.3524 11.9229C95.8477 11.4084 93.2514 11.6724 90.892 12.6816C88.5326 13.6908 86.516 15.3998 85.0972 17.5924C83.6784 19.7851 82.9211 22.3629 82.9211 25C82.9211 28.5867 84.2946 31.9417 86.7027 34.4283L88.985 36.785L87.4856 38.3333ZM94.2193 15H97.4474V35H94.2193V15ZM87.7632 20H90.9912V30H87.7632V20ZM100.675 20H103.904V30H100.675V20Z" fill="#3366FF"/>
</svg>
